<svg width="538" height="523" viewBox="0 0 538 523" fill="none" xmlns="http://www.w3.org/2000/svg">
<path d="M53.9999 31.1998C46.1999 35.1998 42.0999 43.9998 43.9999 52.6998C47.0999 66.4998 61.6999 73.4998 73.3999 66.5998C81.5999 61.7998 85.4999 51.5998 82.4999 42.9998C78.2999 31.0998 65.0999 25.5998 53.9999 31.1998ZM70.8999 33.8998C76.1999 36.5998 79.9999 42.7998 79.9999 48.4998C79.9999 55.5998 76.5999 60.6998 69.2999 64.3998C60.5999 68.7998 49.8999 63.2998 46.9999 52.8998C45.5999 47.9998 47.4999 39.8998 50.6999 37.1998C57.0999 31.7998 64.3999 30.5998 70.8999 33.8998Z" fill="#404040"/>
<path d="M113 30.5999C108.8 32.3999 104.4 36.4999 102.4 40.1999C100.6 43.5999 100.6 53.0999 102.3 57.2999C104.2 61.7999 111.2 67.7999 115.5 68.5999C128.1 70.8999 137.8 64.5999 140.4 52.3999C141.3 48.0999 139.4 40.3999 136.4 36.4999C131.6 30.0999 120.5 27.2999 113 30.5999ZM125 32.7999C125 33.1999 125.9 33.5999 127 33.6999C130.2 33.9999 134.8 38.0999 136.5 42.1999C138.2 46.4999 138.5 51.9999 137 51.9999C136.5 51.9999 136.3 52.6999 136.6 53.4999C137.4 55.5999 132.3 61.7999 127.9 64.0999C121.5 67.2999 114.8 66.0999 108.9 60.7999C105.7 57.9999 104.3 55.2999 103.5 50.9999C102.8 46.9999 103.8 41.7999 105.1 42.4999C105.6 42.8999 105.7 42.2999 105.3 41.3999C104.9 40.2999 105.1 39.8999 105.7 40.2999C106.3 40.6999 106.7 40.2999 106.6 39.3999C106.5 37.4999 110.6 34.1999 113.7 33.6999C114.9 33.4999 116.3 33.0999 116.6 32.6999C117.6 31.6999 125 31.7999 125 32.7999Z" fill="#404040"/>
<path d="M387.6 35.6C385.4 37.7 385.6 40.7 387.9 42C389.2 42.6 407.2 43 439.5 43C471.8 43 489.8 42.6 491.1 42C493.5 40.7 493.6 37.8 491.2 35.7C489.5 34.2 484.5 34 439.2 34C395 34 389 34.2 387.6 35.6Z" fill="#404040"/>
<path d="M387.2 48.2C385.6 49.8 385.7 52.5 387.4 53.9C388.3 54.7 403 54.9 440 54.8C487.6 54.5 491.4 54.4 492.4 52.7C493.2 51.5 493.2 50.5 492.4 49.2C491.4 47.6 487.6 47.5 439.9 47.2C400.7 47 388.1 47.3 387.2 48.2Z" fill="#404040"/>
<path d="M134.3 113.5C131.1 114.9 130.3 116.3 129.8 122.5C129.5 125.1 129.1 125.5 126.5 125.6C121.8 125.7 119.3 126.9 118.6 129.3C118.3 130.5 118 140.1 118 150.6V169.6L121.3 172.8C123.1 174.6 125.6 176 126.7 176C127.9 176 129.2 176.6 129.7 177.2C130.6 178.7 130.3 217.1 129 259.5C128.6 274.9 128.5 296.7 128.8 308L129.3 328.6L126.9 331.1C125 333.2 123.8 333.6 121 333.3C118.5 333 116.7 333.4 115 334.8C112.7 336.6 112.6 337.6 111.4 355.1C110.7 365.2 110.1 376.7 110.1 380.7C110 387.5 110.2 388 113.1 390.4C114.8 391.8 117.2 393 118.6 393C120.6 393 121 393.5 121 395.9C121 397.6 122 400.1 123.4 401.7L125.8 404.5L171.6 405.3C222.3 406.1 220.5 406.3 221.2 399.7C221.4 397.2 222.1 396.5 224.7 395.8C230.7 394.2 231 393 231 368.1V345.6L224.5 339.2L218 332.9V318.1V303.2L240.3 302.7C252.5 302.5 271.8 302.7 283.2 303.3C301.1 304.2 304 304.6 304.5 306C305 307.6 306.9 330 307 334.7C307 336.4 305.8 337.6 302 339.5C299.3 340.9 296.6 343 295.9 344.1C295.2 345.5 294.8 353.6 294.7 367.7C294.7 388.1 294.8 389.2 296.8 391.2C297.9 392.4 300.6 393.6 302.7 393.9C306.3 394.5 306.5 394.7 306.8 398.7C307 401 307.7 403.3 308.3 403.8C309.1 404.5 327.9 405.1 357 405.6C409.4 406.4 406.5 406.7 407.2 400C407.5 397 407.9 396.5 410.9 395.9C414.2 395.2 415.8 393.6 417.2 389.5C417.5 388.4 417.8 377.5 417.9 365.3C418 343.6 418 343.1 415.7 340.5C414.1 338.5 412.2 337.7 408.8 337.3C404.8 336.8 404 336.3 402.9 333.8C402.2 332.2 400.7 330.5 399.6 330C397.5 329.3 397.5 329.1 397.8 287.9C397.9 265.1 398.3 233 398.7 216.6L399.3 186.7L402.1 185.7C404.7 184.7 406 182.9 407.4 178.7C407.7 177.7 408.9 177 410.5 177C411.9 177 414.1 176 415.4 174.7C417.6 172.5 417.7 171.5 418.3 153.6C418.9 133.1 418.4 130.3 414.1 129.4C409.2 128.3 409 128.1 409 124.1C409 118.8 407.3 115.4 404.1 114.1C399.9 112.5 309.4 112.2 307.9 113.8C307.2 114.4 306.3 117.1 306 119.8C305.5 124.4 305.4 124.5 302.3 124.2C299.9 124 298.4 124.5 296.4 126.5L293.8 129.1L294.2 152.5C294.5 179.2 294.5 179 302.7 180L307.5 180.5L307.3 188.5C307.2 192.9 306.9 199.3 306.5 202.7L305.9 208.8L300.2 209.2C291.6 209.8 243 208.2 231 206.9C225.2 206.3 220.2 205.3 219.8 204.7C219.4 204 219 197.5 219 190.3V177L222.4 175.6C228.4 173.1 228.9 171.4 229.6 150.4C230.4 128.3 230.2 127.5 223.5 126.5L219.1 125.8L218.8 121.2C218.3 113.1 219.2 113.3 175.5 112.7C144.9 112.3 136.9 112.4 134.3 113.5ZM210.5 131V136.5L175.3 136.8L140 137V151.6V166.1L135.8 165.8L131.5 165.5V150.5V135.5L135.3 135.8L139 136.1V131.1V126L167.8 125.7C183.6 125.6 199.7 125.4 203.5 125.5H210.5V131ZM395.8 126.6C396.7 126.8 397 128.4 396.8 131.2L396.5 135.5L357.8 135.8L319 136V152V168H331.5H344V199.5V231L271.8 230.8L199.5 230.5L199.2 199.6C199 175.5 199.3 168.5 200.2 167.8C200.9 167.4 204.3 167 207.8 167C214.1 167 214.1 167 213.8 169.7C213.6 172 212.9 172.6 210.5 172.8L207.5 173.1L207.8 196.8C208 209.8 208.2 220.5 208.3 220.5C208.4 220.5 233.7 220.4 264.4 220.2L320.3 219.9L319.6 199.7C319.2 188.6 318.7 177.1 318.3 174.2L317.7 169H312.2H306.7L307.3 159.2C307.7 153.9 308 146.7 308 143.2V137H311C314 137 314 136.9 314 131.7C314 128.7 314.3 126 314.6 125.7C315.3 125 393.5 125.9 395.8 126.6ZM219.8 150.2C220 164.3 220 165 218.1 165C217 165 215.5 165.3 214.7 165.6C213.1 166.2 212.4 160.8 211.7 143.8C211.5 136.7 211.6 136 213.5 135.7C219.6 134.4 219.5 134.2 219.8 150.2ZM406 151.5V167H401.5H397V151.5V136H401.5H406V151.5ZM160.2 167H168L167.8 257.2L167.5 347.5L150.5 347.6L133.5 347.8L133.2 365.9L133 384H128.5H124V376.7C124 372.8 123.7 363.8 123.3 356.7L122.7 344H127.3H132V340V336H137.4H142.7L143.2 255.2C143.5 210.8 143.4 174.4 143 174.2C139.9 173 138.7 171.1 139.4 168.5C140.1 165.7 140.2 165.7 146.2 166.4C149.6 166.7 155.8 167 160.2 167ZM396.5 172.5V176.5L391.3 176.8L386.1 177.1L386.7 228.3C387.2 274.7 386.3 319 384.4 333.7L383.9 338H388.4C393 338 393 338 393 341.5V344.9L399.8 345.2L406.5 345.5L406.8 364.7L407 384H404C401.1 384 401 384.1 401 389V394L389.8 394.1C383.6 394.1 365 394.2 348.5 394.3L318.5 394.5L318.2 390.3L317.9 386.1L312.2 385.8L306.5 385.5L306.9 374.7C307.1 368.8 307.5 360.5 307.9 356.2L308.5 348.5H313H317.5L317.8 367.2L318 385.8L357.8 385.7L397.5 385.5L397.2 367.5L396.9 349.5H386.7H376.5L376.6 346C376.6 344.1 377 303.6 377.4 256C377.9 208.4 378.4 169.1 378.7 168.7C379 168.3 383.1 168.1 387.8 168.2L396.5 168.5V172.5ZM343.5 316V348.5L330.8 348.8L318 349.1V320.1V291.2L262.3 291.3L206.5 291.5L206.2 317.2L206 343H209C211 343 212 343.5 212 344.5C212 345.3 213.3 346.6 214.9 347.4C218.2 349.2 218.6 351 219.6 371.7L220.3 385H216.6H213V389.5V394L184.8 393.9C169.2 393.8 151.1 393.5 144.5 393.1L132.5 392.5V389.1V385.7L172 385.6L211.5 385.5L211.8 366.7L212 348H205H198V316.2C198 298.7 198.2 284.1 198.4 283.9C198.7 283.7 231.4 283.5 271.2 283.5H343.5V316Z" fill="#404040"/>
<path d="M55.2002 39C53.0002 41.1 52.1002 46 54.0002 46C54.5002 46 55.5002 45 56.1002 43.7C56.8002 42.5 58.1002 40.9 59.2002 40.2C60.2002 39.5 61.0002 38.5 61.0002 37.9C61.0002 36.3 57.4002 36.9 55.2002 39Z" fill="#FFFEFE"/>
<path d="M113.8 38.5002C111.1 40.0002 109.4 43.2002 110.5 45.0002C111 45.8001 119 38.6002 119 37.3002C119 36.6002 116.3 37.2002 113.8 38.5002Z" fill="#FFFEFE"/>
<path d="M171.8 126.8L140 127V131.5V136H175.1H210.1L209.8 131.2C209.5 126.7 209.4 126.5 206.5 126.5C204.9 126.5 189.2 126.6 171.8 126.8Z" fill="#FFFEFE"/>
<path d="M315 132.2C315 137.9 315 138 312.2 138H309.3L308.7 148.7C308.3 154.5 308 161.3 308 163.7V168H313H318V152V136L345.8 135.9C361 135.8 378.5 135.5 384.5 135.1L395.5 134.5L395.8 131.2C396 129.2 395.6 127.8 394.8 127.6C394.1 127.3 375.8 127 354.3 126.8L315 126.4V132.2Z" fill="#FFFEFE"/>
<path d="M132 149.8C132 163.4 132.1 163.8 134.3 164.4C139.3 165.7 139.2 165.9 138.9 151C138.6 142.6 138.1 137 137.5 137C137 137 135.5 136.7 134.3 136.4L132 135.8V149.8Z" fill="#FFFEFE"/>
<path d="M212.6 136.9C211.9 138 217.5 145.2 218.4 144.3C218.7 144 219 141.9 219 139.8C219 136.3 218.8 136 216.1 136C214.4 136 212.9 136.4 212.6 136.9Z" fill="#FFFEFE"/>
<path d="M398 138.8C398 139.8 399.6 142.1 401.5 144L405 147.4V142.2V137H401.5C398.8 137 398 137.4 398 138.8Z" fill="#FFFEFE"/>
<path d="M340.6 178.7C337.3 185.7 329.9 197 328.5 197C327.8 197 325.8 195.4 324.1 193.5C322.4 191.6 320.9 190 320.7 190C320.4 190 320.5 197 320.8 205.5L321.3 221H268.9H216.5L216.8 225.5L217.2 230H280.1H343V202.5C343 187.4 342.9 175 342.7 175C342.5 175 341.6 176.7 340.6 178.7Z" fill="#FFFEFE"/>
<path d="M160.3 189.6L154.4 196.2L150.2 190.6C147.8 187.5 145.5 185.2 144.9 185.5C144.4 185.9 144 215.2 144 261.7V337.2L138.5 336.8L133.1 336.5L132.8 340.5C132.5 344.3 132.3 344.5 128.8 344.8L125 345.1V364.1V383H128.5H132V366.1C132 356.8 132.2 348.6 132.5 347.8C132.9 346.8 136.5 346.6 150 346.9L167 347.2V265.1C167 219.9 166.8 183 166.6 183C166.4 183 163.6 186 160.3 189.6Z" fill="#FFFEFE"/>
<path d="M340 303.4C338.9 305.9 337.6 308.1 337.1 308.4C336.7 308.7 332.5 308.3 327.9 307.5C323.3 306.7 319.4 306 319.3 306C319.1 306 319 315.4 319 327V348H331H343V323.5C343 310 342.8 299 342.5 299C342.3 299 341.1 301 340 303.4Z" fill="#FFFEFE"/>
<path d="M392 347C392 347.5 393.1 348 394.5 348C395.9 348 398.8 349.1 401 350.5C403.2 351.9 405.2 353 405.5 353C405.8 353 406 351.4 406 349.5V346H399C395 346 392 346.4 392 347Z" fill="#FFFEFE"/>
<path d="M213 349.4C213 350.1 213.9 351 215 351.3C217.4 351.9 217.8 349.5 215.4 348.6C213.2 347.8 213 347.8 213 349.4Z" fill="#FFFEFE"/>
<path d="M308.6 358.7C308.3 364.1 307.8 372.2 307.5 376.7L307 385H312.1H317.3L316.7 372.2C316.3 365.2 316 357.1 316 354.2V349H312.6H309.2L308.6 358.7Z" fill="#FFFEFE"/>
</svg>
